<svg xmlns="http://www.w3.org/2000/svg" xmlns:xlink="http://www.w3.org/1999/xlink" version="1.1" x="0px" y="0px" viewBox="0 0 100 100" enable-background="new 0 0 100 100" xml:space="preserve"><g><circle fill="#90A4AE" cx="64.581" cy="14.891" r="9.973"/><path fill="#90A4AE" d="M88.648,33.362c-1.149-2.775-4.332-4.093-7.107-2.947l-14.228,5.888l-12.244-11.87c-0.023-0.022-0.051-0.037-0.074-0.059   c-3.336-3.214-8.63-3.415-12.205-0.33L14.079,48.828c-3.791,3.273-4.211,8.998-0.939,12.788c1.053,1.22,2.363,2.08,3.777,2.592   c0.564,0.251,1.171,0.419,1.809,0.465l0.182,0.013c0.261,0.032,0.521,0.048,0.784,0.057l26.664,1.925L35.682,87.124   c-1.391,2.664-0.357,5.95,2.306,7.34c0.804,0.42,1.665,0.618,2.512,0.618c1.962,0,3.857-1.064,4.827-2.924l14.507-27.805   c0.848-1.626,0.82-3.568-0.072-5.168c-0.892-1.601-2.53-2.643-4.358-2.775l-20.632-1.488l19.106-16.491l8.43,8.172   c1.556,1.509,3.86,1.951,5.866,1.12l17.528-7.253C88.477,39.321,89.797,36.139,88.648,33.362z"/></g></svg>
