<svg xmlns="http://www.w3.org/2000/svg" xmlns:xlink="http://www.w3.org/1999/xlink" version="1.1" x="0px" y="0px" viewBox="0 0 100 100" enable-background="new 0 0 100 100" xml:space="preserve"><path fill="#90A4AE" d="M16.455,31.871c-2.617-2.272-6.581-1.992-8.853,0.625c-2.271,2.618-1.991,6.582,0.626,8.854  c2.617,2.271,6.581,1.991,8.853-0.627C19.352,38.106,19.072,34.142,16.455,31.871"/><path fill="#90A4AE" d="M24.807,34.105c-1.501,0-2.987,0.415-3.881,1.754c0,0-0.04,0.046-0.102,0.125  c-0.129,0.156-0.249,0.317-0.36,0.479c-0.434,0.621-1.053,1.646-1.294,2.746c0,0-0.025,0.152-0.033,0.423l0.038,0.872l-0.032-0.007  l2.712,13.782l-0.032-0.008l-2.51,13.02c-0.061,0.338-0.064,0.67-0.018,0.992c0.161,1.129,0.929,2.102,2.025,2.502  c0.149,0.053,0.303,0.1,0.46,0.131c1.339,0.27,2.646-0.361,3.31-1.471c0.179-0.297,0.312-0.629,0.384-0.988l0.427-2.133  c0,0,1.517-6.807,2.433-11.426v-1.767c0,0-0.253-2.038-0.539-3.41l0.357,0.15c2.092,0.841,2.296,0.927,0.585,0.235  c10.829,4.359,15.912,6.29,15.912,6.29l9.322-10.742L29.758,35.218C29.758,35.218,27.263,34.105,24.807,34.105"/><path fill="#90A4AE" d="M94.736,67.402c0.014,0.494,0.041,0.994,0.074,1.158c0.224,1.116,0.836,2.018,1.953,2.354  c0.151,0.045,0.309,0.082,0.467,0.104c1.353,0.193,2.035-0.67,2.392-1.771c0.106-0.33,0.067-0.676,0.119-1.039l0.233-3.201  L100,64.936c0.002-0.094,0-0.188-0.007-0.285c-0.101-1.36-1.052-2.457-2.3-2.801c-0.313-0.086-0.781-0.25-1.139-0.25  c-0.025,0-0.051,0.002-0.074,0.002l-20.131-5.43l-20.648-9.014l-7.145,8.232l23.478,6.459c0.263,0.228,2.794,0.664,3.489,0.664  c0.041,0,0.074-0.002,0.102-0.004l-0.001,0.004L94.736,67.402L94.736,67.402z"/></svg>
